# xmcd
#
# Track frame offsets:
#	150
#	18042
#	45297
#	83401
#	98980
#	116134
#	135991
#	151541
#	175709
#	203766
#	222343
#	231198
#	252037
#	277978
#	292034
#	305354
#	330793
#
# Disc length: 4708 seconds
#
# Revision: 0
# Processed by: cddbd v1.5.2PL0 Copyright (c) Steve Scherf et al.
# Submitted via: EZCDAudioConverter 2.1.7.1
#
DISCID=cc126211
DTITLE=Crowded House - North America Travelogue 2/3
DYEAR=1900
DGENRE=
TTITLE0=Even If
TTITLE1=Pour Le Monde
TTITLE2=Private Universe
TTITLE3=In The Lowlands
TTITLE4=Message To My Girl
TTITLE5=Not The Girl You Think You Are
TTITLE6=English Trees
TTITLE7=Four Seasons In One Day
TTITLE8=Don't Dream It's Over
TTITLE9=In My Command
TTITLE10=Lester
TTITLE11=Falling Dove
TTITLE12=Heaven That I'm Making
TTITLE13=One Step Ahead
TTITLE14=Tombstone
TTITLE15=Say That Again
TTITLE16=Elephants
EXTD=
EXTT0=
EXTT1=
EXTT2=
EXTT3=
EXTT4=
EXTT5=
EXTT6=
EXTT7=
EXTT8=
EXTT9=
EXTT10=
EXTT11=
EXTT12=
EXTT13=
EXTT14=
EXTT15=
EXTT16=
PLAYORDER=
